<?xml version="1.0" standalone="no"?>
<!DOCTYPE svg PUBLIC "-//W3C//DTD SVG 20010904//EN"
 "http://www.w3.org/TR/2001/REC-SVG-20010904/DTD/svg10.dtd">
<svg version="1.0" xmlns="http://www.w3.org/2000/svg"
 width="264.000000pt" height="264.000000pt" viewBox="0 0 264.000000 264.000000"
 preserveAspectRatio="xMidYMid meet">
<metadata>
Created by potrace 1.11, written by Peter Selinger 2001-2013
</metadata>
<g transform="translate(0.000000,264.000000) scale(0.100000,-0.100000)"
fill="#000000" stroke="none">
<path d="M1259 2568 c-1 -7 -3 -38 -5 -68 -5 -82 -4 -80 -31 -63 -24 16 -28
13 -35 -32 -4 -27 -18 -36 -40 -24 -12 7 -18 6 -18 -2 0 -7 -11 -10 -29 -7
-21 3 -32 -1 -41 -16 -9 -15 -10 -21 -1 -24 6 -2 11 -8 11 -13 0 -5 -31 -9
-70 -9 -52 0 -75 -4 -90 -17 -22 -19 -26 -33 -9 -33 5 0 8 4 5 9 -3 5 1 11 9
15 21 8 19 -7 -5 -34 -11 -13 -20 -18 -20 -12 0 13 -78 10 -100 -3 -8 -5 -11
-4 -7 2 3 5 -9 8 -31 5 -20 -2 -48 -5 -62 -5 -20 -1 -26 -7 -26 -23 0 -21 14
-28 26 -12 3 3 14 0 24 -7 17 -13 16 -14 -10 -11 -16 1 -35 -2 -41 -7 -8 -6
-13 -6 -13 0 0 5 -13 8 -30 5 -30 -4 -36 5 -31 46 1 6 -2 12 -6 13 -4 0 -16 2
-25 4 -10 2 -18 -1 -18 -6 0 -6 -7 -6 -17 -1 -26 13 -58 0 -58 -23 1 -11 7
-19 14 -17 7 1 10 -2 6 -8 -3 -6 -10 -8 -15 -5 -4 2 -8 -13 -8 -35 -1 -33 3
-40 16 -38 10 2 17 -3 17 -12 0 -9 -7 -14 -17 -12 -10 2 -18 -2 -18 -8 0 -6 4
-9 9 -5 6 3 15 -3 21 -12 10 -16 11 -16 6 -1 -6 20 10 34 18 16 3 -7 3 -3 0
10 -3 12 -2 22 3 22 5 0 10 -11 11 -25 1 -14 -3 -25 -9 -25 -6 0 -3 -7 6 -16
9 -10 13 -25 10 -38 -5 -18 -5 -19 5 -3 6 9 9 21 6 26 -3 5 1 11 9 15 8 3 15
0 15 -7 0 -8 4 -7 11 3 7 11 9 6 7 -20 l-3 -35 70 -5 70 -5 1 -175 c0 -114 -3
-178 -10 -182 -8 -5 -7 -8 1 -8 7 0 10 -7 7 -15 -4 -8 -10 -15 -16 -15 -5 0
-6 5 -2 11 5 8 1 8 -13 0 -11 -6 -23 -7 -27 -4 -3 3 -6 -10 -6 -30 0 -36 -1
-37 -36 -37 -28 0 -35 -3 -31 -15 4 -8 2 -17 -3 -20 -5 -3 -7 -12 -4 -20 4 -9
-1 -13 -15 -12 -12 1 -21 5 -21 10 0 5 -6 5 -12 0 -7 -6 -43 -11 -79 -11 l-66
-1 1 32 1 31 -55 1 c-70 1 -84 -3 -70 -20 8 -9 8 -15 0 -20 -5 -3 -10 -11 -10
-16 0 -6 6 -7 13 -3 9 6 9 4 1 -7 -5 -8 -10 -25 -10 -39 1 -19 6 -25 23 -24
13 1 20 -3 16 -9 -4 -6 0 -8 10 -4 12 5 17 1 17 -13 0 -11 -5 -20 -11 -20 -5
0 -7 5 -3 12 4 7 3 8 -5 4 -6 -4 -8 -12 -5 -18 4 -6 -1 -8 -15 -3 -11 3 -21 2
-21 -3 0 -4 15 -9 33 -10 73 -4 89 -8 99 -26 7 -13 7 -17 0 -12 -6 3 -13 2
-17 -4 -3 -5 -1 -10 5 -10 6 0 9 -4 6 -8 -2 -4 4 -9 15 -9 11 -1 17 2 14 8 -4
5 4 5 20 -1 14 -5 29 -9 33 -9 4 1 17 1 29 0 22 -1 22 -2 21 -188 0 -103 -3
-193 -5 -200 -3 -8 -12 -9 -28 -3 -18 7 -25 5 -29 -6 -3 -9 -4 -20 0 -25 3 -5
1 -9 -5 -9 -6 0 -8 -7 -4 -16 5 -14 1 -16 -25 -12 -18 2 -32 1 -32 -4 0 -5 -5
-6 -10 -3 -6 4 -17 1 -25 -5 -11 -9 -15 -9 -15 -1 0 6 -4 11 -8 11 -4 0 -8
-11 -8 -24 0 -17 5 -23 21 -22 13 1 19 8 19 19 -2 15 1 16 13 5 10 -8 11 -14
4 -16 -6 -2 -9 -7 -6 -12 3 -4 -15 -7 -40 -7 -34 2 -45 -2 -45 -13 0 -10 -3
-11 -8 -4 -4 7 -26 11 -50 10 -34 -2 -46 2 -54 17 -7 15 -7 18 2 12 8 -5 11
-1 8 11 -3 16 -13 19 -66 20 l-62 2 -1 -37 c0 -20 -2 -47 -3 -59 -3 -24 3 -30
39 -35 21 -3 25 -8 25 -33 0 -13 -3 -14 -15 -4 -8 6 -20 8 -26 4 -8 -5 -9 -3
-5 5 5 7 15 10 23 7 8 -3 11 -2 8 3 -11 19 -41 8 -41 -15 0 -15 5 -20 15 -16
10 4 12 1 6 -9 -7 -11 -6 -12 6 -3 10 8 21 7 39 -2 14 -8 21 -14 15 -14 -5 0
-4 -4 4 -9 13 -8 13 -12 0 -27 -13 -16 -12 -16 8 -4 17 11 19 17 11 28 -8 9
-8 16 -1 23 7 7 13 2 17 -17 5 -18 3 -30 -6 -35 -8 -5 20 -9 65 -9 l77 0 0
-229 c0 -174 3 -230 13 -233 10 -3 1915 -2 1955 1 9 1 12 54 12 231 l0 230 70
0 c61 0 86 9 63 23 -5 2 -3 3 3 1 6 -1 17 2 25 7 11 8 10 9 -5 7 -10 -2 -21 2
-23 7 -5 15 40 17 49 3 4 -7 9 -2 13 14 4 15 13 29 21 32 16 6 19 26 3 26 -5
0 -7 -4 -4 -10 3 -5 1 -10 -4 -10 -6 0 -11 7 -11 15 0 9 9 15 25 15 17 0 23
-4 19 -14 -3 -8 -2 -16 3 -19 4 -3 9 10 10 29 2 19 4 37 4 41 1 5 1 27 0 51
l-1 42 -63 0 -63 0 2 -30 c2 -32 3 -32 -71 -32 -80 1 -85 1 -85 13 0 5 4 8 8
5 4 -2 8 6 8 20 0 13 -4 24 -8 24 -4 0 -8 -5 -8 -12 0 -9 -3 -9 -12 0 -7 7
-31 12 -55 12 -44 0 -48 5 -44 53 2 13 -5 17 -33 17 -20 0 -36 5 -36 11 0 5 4
8 9 4 5 -3 13 -1 16 5 4 6 3 10 -2 9 -20 -3 -27 2 -13 11 9 6 10 10 3 10 -8 0
-12 47 -12 169 -2 191 -8 179 87 176 41 -2 52 1 48 11 -6 14 9 20 17 7 2 -5 2
-2 1 4 -2 7 5 17 14 22 16 10 16 10 0 11 -10 0 -18 -4 -18 -10 0 -5 -4 -10
-10 -10 -5 0 -7 7 -3 16 4 11 15 15 34 12 28 -4 35 5 30 35 -1 5 3 6 9 2 5 -3
10 -1 10 4 0 6 -4 11 -10 11 -5 0 -10 4 -10 8 0 13 39 8 45 -6 2 -7 1 -11 -3
-8 -4 3 -14 -4 -20 -15 -12 -19 -12 -19 13 -3 13 9 23 20 20 24 -3 5 -1 11 4
14 10 7 6 90 -5 108 -5 7 -2 8 6 3 8 -5 11 -3 8 6 -3 10 -22 14 -59 15 -72 0
-77 -2 -73 -38 l4 -30 -50 4 c-28 1 -50 -1 -50 -6 0 -5 -6 -4 -12 1 -7 6 -21
9 -30 8 -10 -2 -21 1 -24 6 -3 6 -11 5 -20 -2 -13 -10 -14 -7 -11 25 2 20 2
35 0 32 -3 -3 -16 -1 -29 4 -16 6 -24 6 -24 -1 0 -6 -4 -7 -10 -4 -5 3 -10 22
-10 40 0 33 -2 34 -30 31 -17 -2 -33 0 -36 5 -3 5 1 9 8 9 10 0 10 2 -1 9 -9
6 -10 11 -2 15 6 4 8 13 4 19 -5 7 -8 85 -9 175 l0 162 68 0 c44 0 67 4 63 10
-3 6 -1 10 4 10 6 0 11 -5 11 -12 0 -6 3 -8 7 -5 3 4 -2 16 -12 27 -11 12 -13
20 -6 20 7 0 10 4 7 8 -2 4 6 8 20 8 13 0 24 -4 24 -9 0 -5 7 -2 15 7 8 8 24
13 35 11 11 -2 18 0 15 5 -3 5 -1 11 5 15 15 9 1 27 -16 21 -8 -3 -14 -1 -14
4 0 5 8 10 18 12 13 3 17 14 18 55 0 29 -3 50 -7 47 -5 -3 -6 1 -3 9 3 8 -2
17 -12 21 -12 5 -15 2 -10 -10 5 -14 4 -15 -8 -5 -8 7 -20 10 -26 6 -5 -3 -10
-2 -10 3 0 5 -11 7 -25 4 -14 -2 -25 -9 -25 -14 0 -5 -5 -6 -11 -3 -6 4 -5 -2
2 -13 16 -26 9 -34 -27 -32 -16 0 -47 1 -69 2 -22 0 -34 3 -27 5 6 3 10 9 7
13 -3 5 -1 11 4 14 5 4 13 1 17 -5 5 -8 3 -9 -6 -4 -8 5 -11 4 -7 -2 3 -5 16
-9 29 -8 28 2 32 37 6 41 -10 1 -18 -2 -18 -8 0 -6 -6 -6 -15 2 -8 7 -22 10
-30 6 -8 -3 -15 -2 -15 2 0 5 -17 7 -37 5 -21 -1 -40 3 -45 10 -4 6 -8 7 -8 2
0 -6 -19 -10 -42 -10 -43 2 -54 19 -25 37 8 5 6 8 -5 8 -10 0 -18 -5 -18 -12
0 -6 -3 -8 -6 -5 -4 4 -1 13 6 22 11 13 8 15 -19 15 -23 0 -30 -4 -25 -12 6
-10 4 -10 -7 0 -7 6 -28 12 -46 12 -31 0 -33 2 -33 33 l0 32 -55 -1 c-30 -1
-55 3 -55 8 0 5 -3 7 -7 5 -5 -3 -14 1 -21 9 -10 11 -10 14 2 14 7 0 16 6 19
14 4 10 -4 13 -34 12 -41 -2 -41 -3 -42 62 0 17 -4 32 -9 32 -4 0 -8 5 -8 11
0 5 4 8 8 5 5 -3 9 1 9 8 0 9 -18 14 -55 15 -30 1 -59 4 -63 7 -5 3 -10 -1
-10 -8z m44 -43 c-3 -9 -8 -14 -10 -11 -3 3 -2 9 2 15 9 16 15 13 8 -4z m37 1
c0 -2 -8 -10 -17 -17 -16 -13 -17 -12 -4 4 13 16 21 21 21 13z m-235 -176 c-3
-5 -1 -10 6 -10 7 0 10 -3 6 -6 -9 -9 -28 6 -22 17 4 5 8 9 11 9 3 0 2 -4 -1
-10z m465 -10 c0 -5 -7 -6 -17 -3 -10 4 -14 2 -9 -5 3 -6 2 -13 -3 -16 -7 -5
-8 11 -2 32 3 7 31 0 31 -8z m-620 -80 c0 -5 -5 -10 -11 -10 -5 0 -7 5 -4 10
3 6 8 10 11 10 2 0 4 -4 4 -10z m-260 -40 c0 -5 -5 -10 -11 -10 -5 0 -7 5 -4
10 3 6 8 10 11 10 2 0 4 -4 4 -10z m54 1 c4 -5 -4 -7 -16 -4 -19 4 -20 3 -8
-6 9 -7 10 -11 3 -11 -15 0 -25 15 -16 24 9 9 31 7 37 -3z m1186 5 c0 -2 -7
-7 -16 -10 -8 -3 -12 -2 -9 4 6 10 25 14 25 6z m47 -10 c0 -8 -6 -12 -15 -9
-11 5 -11 7 0 14 7 5 13 9 14 9 0 0 1 -6 1 -14z m-1442 -16 c-3 -5 -12 -10
-18 -10 -7 0 -6 4 3 10 19 12 23 12 15 0z m1605 6 c0 -2 -8 -10 -17 -17 -16
-13 -17 -12 -4 4 13 16 21 21 21 13z m-2 -118 c6 -13 11 -17 11 -10 1 6 6 12
13 12 18 0 -7 -23 -29 -26 -13 -2 -18 4 -18 21 0 31 9 32 23 3z m142 -1318 c3
-1 10 -2 15 -1 6 1 2 -5 -7 -12 -10 -8 -15 -16 -12 -19 3 -4 1 -9 -4 -12 -5
-3 -15 1 -22 9 -10 12 -9 15 4 15 9 0 16 5 16 11 0 5 -4 8 -9 4 -5 -3 -12 -1
-15 4 -5 8 15 8 34 1z m-1910 -12 c0 -4 -4 -8 -9 -8 -6 0 -12 4 -15 8 -3 5 1
9 9 9 8 0 15 -4 15 -9z m2125 -17 c-9 -8 -36 -10 -30 -2 2 4 11 8 20 8 8 0 13
-3 10 -6z m55 5 c0 -3 -4 -8 -10 -11 -5 -3 -10 -1 -10 4 0 6 5 11 10 11 6 0
10 -2 10 -4z"/>
<path d="M864 2295 c-3 -8 -4 -20 -1 -27 3 -7 6 -3 6 10 1 13 5 20 11 17 6 -3
10 -1 10 4 0 16 -20 13 -26 -4z"/>
<path d="M1750 2300 c0 -5 5 -10 10 -10 6 0 10 -7 10 -17 0 -9 3 -14 6 -10 8
8 -5 47 -17 47 -5 0 -9 -4 -9 -10z"/>
<path d="M1726 2262 c-3 -5 1 -9 9 -9 8 0 12 4 9 9 -3 4 -7 8 -9 8 -2 0 -6 -4
-9 -8z"/>
<path d="M611 2207 c-8 -10 -7 -14 2 -14 8 0 14 6 14 14 0 7 -1 13 -2 13 -2 0
-8 -6 -14 -13z"/>
<path d="M2013 2207 c0 -8 6 -14 14 -14 9 0 10 4 2 14 -6 7 -12 13 -14 13 -1
0 -2 -6 -2 -13z"/>
<path d="M2070 2020 c0 -5 5 -10 10 -10 6 0 10 5 10 10 0 6 -4 10 -10 10 -5 0
-10 -4 -10 -10z"/>
<path d="M686 1642 c-3 -5 1 -9 9 -9 8 0 12 4 9 9 -3 4 -7 8 -9 8 -2 0 -6 -4
-9 -8z"/>
<path d="M1946 1642 c-3 -5 1 -9 9 -9 8 0 12 4 9 9 -3 4 -7 8 -9 8 -2 0 -6 -4
-9 -8z"/>
<path d="M534 1508 c-3 -4 -3 -8 1 -8 3 0 1 -10 -5 -22 -10 -21 -9 -21 9 2 12
14 19 18 16 9 -4 -10 1 -19 12 -23 9 -4 14 -4 10 0 -4 4 -1 14 6 22 10 13 9
14 -2 7 -10 -6 -13 -4 -9 6 6 16 -29 22 -38 7z"/>
<path d="M2069 1508 c-5 -18 -6 -39 -2 -34 4 3 12 1 19 -5 9 -8 16 -5 24 12 7
12 8 19 2 15 -6 -3 -13 -2 -17 4 -5 9 -24 14 -26 8z m26 -19 c11 -16 1 -19
-13 -3 -7 8 -8 14 -3 14 5 0 13 -5 16 -11z"/>
<path d="M271 1366 c-10 -11 -9 -14 1 -12 14 2 23 15 15 22 -2 2 -10 -2 -16
-10z"/>
<path d="M2354 1334 c-18 -14 -18 -15 4 -4 12 6 22 13 22 15 0 8 -5 6 -26 -11z"/>
<path d="M330 1300 c0 -5 5 -10 11 -10 8 0 8 -4 1 -13 -8 -10 -6 -13 11 -14
12 0 16 1 8 4 -9 4 -10 8 -3 12 7 4 4 11 -8 19 -12 7 -20 8 -20 2z"/>
<path d="M375 1300 c3 -5 8 -10 11 -10 2 0 4 5 4 10 0 6 -5 10 -11 10 -5 0 -7
-4 -4 -10z"/>
<path d="M2291 1291 c-15 -10 -7 -31 12 -30 8 0 8 2 -1 6 -10 4 -10 8 -1 19
13 16 10 18 -10 5z"/>
<path d="M506 903 c-6 -14 -5 -15 5 -6 7 7 10 15 7 18 -3 3 -9 -2 -12 -12z"/>
<path d="M2529 608 c-11 -8 -11 -9 3 -5 9 3 18 1 21 -6 2 -8 5 -8 10 0 9 15
-17 23 -34 11z"/>
<path d="M2474 544 c-18 -14 -18 -15 4 -4 12 6 22 13 22 15 0 8 -5 6 -26 -11z"/>
</g>
</svg>
